<svg xmlns="http://www.w3.org/2000/svg" id="Layer_2" viewBox="0 0 450.9 165"><defs><style>      .st0 {        fill: #231f20;      }      .st1 {        font-family: Helvetica-Bold, Helvetica;        font-size: 21px;        font-weight: 700;        isolation: isolate;      }    </style></defs><g><polygon class="st0" points="56.3 81.6 30.2 .6 0 .6 41.3 126.2 56.3 81.6"></polygon><polygon class="st0" points="141.7 82.1 115.4 .6 88.4 .6 46.1 126.6 72.5 126.6 101.1 41.2 128 123.5 141.7 82.1"></polygon><polygon class="st0" points="173.5 .6 144.2 89.8 144.1 89.7 132 126.6 160 126.6 201.4 .6 173.5 .6"></polygon><polygon class="st0" points="295.2 .6 249 78.8 204.9 5.8 177.7 87 177.7 126.6 204.9 126.6 204.9 52.3 241.9 113.1 254.9 113.1 292 51.5 292.3 126.6 319.5 126.6 319.5 .6 295.2 .6"></polygon><path class="st0" d="M353.6,102.6V24.4h26.2l7.9-23.6c-2-.1-4.1-.2-6.2-.2h-57.2v126h21.3l8.1-24.1h0Z"></path><path class="st0" d="M442.1,30.4c-5.9-9.4-14-16.7-24.5-22-7.5-3.8-15.9-6.2-25.1-7.2l-7.8,23.3c6.5.5,12.2,2,17.2,4.6,6.2,3.2,11,7.7,14.4,13.6,3.4,5.9,5.1,12.8,5.1,20.9s-1.7,14.8-5.1,20.8-8.2,10.5-14.4,13.7-13.5,4.8-21.9,4.8h-21.6l-8,23.8h31c13.7,0,25.7-2.6,36.2-7.8s18.6-12.5,24.5-22,8.8-20.5,8.8-33.2-2.9-23.8-8.8-33.2h0Z"></path></g><text class="st1" transform="translate(109.2 155.6)"><tspan x="0" y="0">WATCH MY DIAMONDS</tspan></text></svg>